<?xml version="1.0" standalone="no"?>
<!DOCTYPE svg PUBLIC "-//W3C//DTD SVG 20010904//EN"
 "http://www.w3.org/TR/2001/REC-SVG-20010904/DTD/svg10.dtd">
<svg version="1.0" xmlns="http://www.w3.org/2000/svg"
 width="1432.000000pt" height="1432.000000pt" viewBox="0 0 1432.000000 1432.000000"
 preserveAspectRatio="xMidYMid meet">
<metadata>
Created by potrace 1.14, written by Peter Selinger 2001-2017
</metadata>
<g transform="translate(0.000000,1432.000000) scale(0.100000,-0.100000)"
fill="#000000" stroke="none">
<path d="M6557 13374 c-1 -1 -56 -5 -122 -8 -66 -4 -133 -8 -150 -10 -16 -2
-61 -6 -98 -10 -37 -4 -76 -9 -85 -11 -9 -1 -42 -6 -72 -10 -30 -3 -102 -15
-160 -26 -58 -11 -116 -23 -130 -25 -66 -12 -309 -80 -433 -120 -662 -217
-1222 -599 -1638 -1119 -91 -114 -238 -328 -292 -425 -14 -25 -39 -70 -56
-100 -228 -401 -457 -1086 -496 -1484 -3 -33 -8 -62 -10 -65 -6 -10 -17 -242
-17 -353 0 -189 23 -414 57 -565 3 -13 7 -33 10 -45 47 -228 166 -530 303
-768 54 -94 213 -332 239 -358 7 -8 25 -30 40 -50 29 -39 104 -130 163 -197
65 -74 364 -370 440 -435 41 -36 77 -68 80 -71 3 -3 79 -65 170 -138 206 -165
605 -451 629 -451 5 0 11 -4 13 -8 4 -11 209 -139 425 -267 98 -58 185 -110
193 -115 8 -5 31 -18 50 -29 85 -46 982 -589 1064 -643 87 -58 244 -169 276
-195 8 -6 65 -51 125 -100 260 -207 381 -368 401 -528 8 -72 8 -65 0 -141 -10
-96 -55 -215 -116 -303 -180 -263 -494 -342 -1020 -257 -30 4 -167 36 -220 50
-219 60 -518 173 -835 316 -100 45 -442 218 -487 246 -21 13 -40 24 -43 24 -9
0 -288 172 -370 228 -301 207 -489 368 -865 743 -289 288 -334 336 -495 524
-170 199 -151 177 -309 373 -92 115 -142 169 -150 163 -6 -4 -144 -113 -306
-240 -162 -128 -311 -244 -329 -259 -19 -15 -69 -54 -110 -87 -42 -33 -88 -69
-103 -80 -30 -23 -383 -301 -413 -327 -11 -9 -110 -86 -220 -172 -110 -86
-207 -163 -216 -170 -8 -7 -58 -46 -110 -87 -52 -41 -103 -81 -114 -91 -11 -9
-65 -51 -120 -94 -163 -126 -179 -138 -196 -154 -10 -8 -45 -35 -78 -60 -33
-25 -60 -51 -61 -58 0 -30 381 -543 470 -632 3 -3 34 -39 70 -80 204 -235 582
-606 784 -770 11 -8 35 -29 55 -46 128 -109 429 -338 571 -435 36 -24 67 -47
70 -50 9 -10 396 -261 420 -272 8 -4 27 -15 42 -25 186 -118 543 -313 863
-471 110 -54 223 -109 250 -121 28 -12 84 -38 125 -57 41 -19 133 -59 205 -89
71 -31 144 -61 160 -69 158 -71 781 -304 885 -330 8 -2 93 -27 188 -54 178
-53 352 -99 400 -107 15 -3 43 -9 62 -14 30 -8 215 -46 315 -65 355 -67 865
-100 1245 -80 155 8 301 20 365 30 17 2 55 7 85 10 52 6 79 10 125 19 11 2 40
7 65 11 25 4 54 9 65 11 11 2 34 7 50 10 23 4 173 39 250 58 219 55 674 229
675 258 0 4 -42 35 -92 69 -214 143 -377 286 -530 464 -56 65 -158 203 -158
214 0 5 -4 11 -8 13 -29 11 -187 321 -241 473 -18 50 -36 101 -41 115 -10 27
-48 171 -55 211 -58 298 -65 621 -19 854 2 11 9 48 14 82 42 257 236 721 405
968 194 285 424 503 701 667 208 122 439 211 686 264 97 20 133 26 268 41 83
10 415 10 500 1 144 -17 308 -44 345 -58 27 -10 32 -2 16 28 -5 9 -33 67 -62
127 -69 144 -193 358 -261 450 -4 6 -41 55 -81 110 -137 186 -256 323 -442
510 -368 367 -742 659 -1305 1015 -124 78 -236 149 -250 158 -14 9 -33 21 -42
27 -10 5 -66 40 -125 77 -59 36 -122 74 -140 85 -675 390 -1175 703 -1333 833
-129 107 -276 272 -348 390 -58 97 -72 146 -73 255 -1 212 160 432 366 501 50
17 162 43 206 48 60 7 313 9 344 2 11 -2 45 -7 75 -10 70 -8 147 -23 270 -51
479 -110 1093 -397 1635 -764 172 -117 561 -411 595 -450 3 -4 34 -31 70 -61
62 -53 94 -81 244 -220 114 -105 393 -386 506 -510 57 -63 107 -117 110 -120
6 -5 123 -143 127 -149 1 -2 71 57 155 131 289 254 853 750 888 782 19 17 112
99 205 181 246 216 407 358 425 375 9 8 45 40 80 70 34 30 68 59 74 65 6 6 70
62 141 124 220 193 255 225 255 233 0 6 -139 165 -204 234 -6 6 -56 60 -111
120 -131 142 -490 501 -634 634 -135 125 -118 110 -211 190 -41 36 -77 67 -80
70 -20 22 -301 246 -415 331 -188 141 -450 318 -583 394 -9 6 -66 40 -127 76
-391 235 -919 499 -1399 701 -501 210 -920 354 -1331 457 -127 31 -333 75
-400 85 -22 4 -62 10 -90 16 -67 12 -110 19 -170 26 -27 3 -61 7 -75 9 -14 3
-56 7 -95 11 -38 3 -86 8 -105 10 -59 7 -558 23 -563 18z"/>
<path d="M13376 7383 c-256 -43 -476 -232 -555 -475 -35 -106 -45 -252 -26
-356 51 -275 269 -502 545 -566 101 -24 274 -16 375 17 283 93 478 347 492
643 24 458 -377 814 -831 737z"/>
<path d="M10105 4438 c-218 -25 -452 -140 -605 -298 -89 -92 -120 -133 -178
-240 -157 -290 -162 -654 -12 -953 123 -245 343 -433 605 -516 121 -39 166
-46 310 -46 139 0 202 8 300 36 76 22 275 117 275 130 0 5 5 9 11 9 7 0 33 17
58 37 261 212 402 512 395 839 -2 116 -14 183 -51 299 -108 331 -385 591 -728
680 -103 27 -260 37 -380 23z"/>
</g>
</svg>
